<svg fill="#AD9983" width="24" height="24" xmlns="http://www.w3.org/2000/svg"><g><path d="m22.533 24-8.766-8.767a7.345 7.345 0 0 1-2.334 1.35 8.25 8.25 0 0 1-2.833.484c-2.4 0-4.433-.834-6.1-2.5C.833 12.9 0 10.889 0 8.533 0 6.178.833 4.167 2.5 2.5 4.167.833 6.189 0 8.567 0c2.355 0 4.36.833 6.016 2.5 1.656 1.667 2.484 3.678 2.484 6.033 0 .956-.156 1.878-.467 2.767a8.46 8.46 0 0 1-1.4 2.5l8.8 8.733L22.533 24Z"/><path d="M8.567 15.067c1.8 0 3.333-.64 4.6-1.917 1.266-1.278 1.9-2.817 1.9-4.617 0-1.8-.634-3.339-1.9-4.616C11.9 2.639 10.367 2 8.567 2c-1.823 0-3.373.639-4.65 1.917C2.639 5.194 2 6.733 2 8.533c0 1.8.639 3.34 1.917 4.617 1.277 1.278 2.827 1.917 4.65 1.917Z" fill="#FFF"/></g></svg>