<svg xmlns="http://www.w3.org/2000/svg" width="98" height="98" viewBox="0 0 98 98">
    <defs>
        <clipPath id="1rx6a">
            <path fill="#fff" d="M49 98c27.062 0 49-21.938 49-49S76.062 0 49 0 0 21.938 0 49s21.938 49 49 49z"/>
        </clipPath>
    </defs>
    <g><g>
        <path fill="#4C7C8A" fill-opacity="1" d="M49 98c27.062 0 49-21.938 49-49S76.062 0 49 0 0 21.938 0 49s21.938 49 49 49z"/><path fill="none" stroke="#fff" stroke-miterlimit="20" stroke-width="4" d="M49 98c27.062 0 49-21.938 49-49S76.062 0 49 0 0 21.938 0 49s21.938 49 49 49z" clip-path="url(&quot;#1rx6a&quot;)"/></g><g transform="rotate(90 50 49)"><path fill="#fff" d="M49.159 43.308a1 1 0 0 1 1.682 0L58.01 54.46a1 1 0 0 1-.842 1.54H42.832a1 1 0 0 1-.841-1.54z"/>
    </g>
    </g>
</svg>