<svg xmlns="http://www.w3.org/2000/svg" width="100%" height="100%" viewBox="0 0 100 100">
    <defs>
        <clipPath id="p5qba">
            <path fill="#fff" d="M49 98c27.062 0 49-21.938 49-49S76.062 0 49 0 0 21.938 0 49s21.938 49 49 49z"/>
        </clipPath>
    </defs>
    <g>
        <g>
            <path fill="#151516" fill-opacity="0"
                  d="M49 98c27.062 0 49-21.938 49-49S76.062 0 49 0 0 21.938 0 49s21.938 49 49 49z"/>
            <path fill="none" stroke="#fff" stroke-opacity="0.3" stroke-miterlimit="20" stroke-width="4"
                  d="M49 98c27.062 0 49-21.938 49-49S76.062 0 49 0 0 21.938 0 49s21.938 49 49 49z"
                  clip-path="url(&quot;#p5qba&quot;)"/>
        </g>
        <g transform="rotate(90 50 49)">
            <path fill="#fff"
                  d="M49.159 43.309a1 1 0 0 1 1.682 0l7.168 11.15A1 1 0 0 1 57.17 56H42.831a1 1 0 0 1-.842-1.54z"/>
        </g>
    </g>
</svg>