<svg xmlns="http://www.w3.org/2000/svg" width="19" height="19" viewBox="0 0 19 19">
    <defs>
        <clipPath id="4roua">
            <path fill="#fff"
                  d="M9.5 19A9.5 9.5 0 0 0 19 9.5 9.5 9.5 0 0 0 9.5 0 9.5 9.5 0 0 0 0 9.5 9.5 9.5 0 0 0 9.5 19z"/>
        </clipPath>
    </defs>
    <g>
        <g>
            <path fill="none" stroke="#4C7C8A" stroke-miterlimit="20" stroke-width="2"
                  d="M9.5 19A9.5 9.5 0 0 0 19 9.5 9.5 9.5 0 0 0 9.5 0 9.5 9.5 0 0 0 0 9.5 9.5 9.5 0 0 0 9.5 19z"
                  clip-path="url(&quot;#4roua&quot;)"/>
        </g>
        <g>
            <path fill="#4C7C8A" d="M8 6v1.874L9.858 9.5 8 11.126V13l3.828-3.35a.2.2 0 0 0 0-.3z"/>
        </g>
    </g>
</svg>