<svg xmlns="http://www.w3.org/2000/svg" width="34" height="35" viewBox="0 0 34 35">
    <g>
        <g>
            <path fill="currentColor"
                  d="M26.917 17.845c0-2.692-.012-3.03-.06-4.087-.161-3.596-2.162-5.6-5.767-5.758-1.09-.058-1.397-.069-4.09-.069-2.693 0-3 .012-4.088.069-3.603.156-5.603 2.155-5.77 5.758-.047 1.057-.059 1.395-.059 4.087 0 2.692.012 3.03.06 4.087.166 3.602 2.165 5.601 5.769 5.767 1.088.048 1.395.06 4.088.06s3-.012 4.09-.06c3.597-.166 5.604-2.163 5.767-5.767.048-1.056.06-1.395.06-4.087zm7.083 0c0 9.385-7.612 16.995-17 16.995S0 27.23 0 17.845C0 8.459 7.612.85 17 .85s17 7.61 17 16.995zm-13.695 0a3.305 3.305 0 0 1-6.61 0A3.292 3.292 0 0 1 17 14.54a3.292 3.292 0 0 1 3.305 3.304zm1.99-4.102c.705 0 1.19-.533 1.19-1.19 0-.656-.485-1.189-1.19-1.189a1.19 1.19 0 1 0 0 2.38zm-.202 4.102A5.07 5.07 0 0 0 17 12.755a5.07 5.07 0 0 0-5.093 5.09 5.093 5.093 0 0 0 10.186 0zm2.98-4.005c.047 1.045.057 1.358.057 4.005s-.01 2.961-.056 4.006c-.125 2.666-1.376 3.943-4.074 4.065C20 26 19.65 26 17 26c-2.648 0-3 0-4-.084-2.702-.123-3.949-1.403-4.072-4.065-.047-1.046-.058-1.36-.058-4.006 0-2.647.011-2.96.058-4.005.123-2.668 1.375-3.942 4.072-4.065 1-.047 1.352-.056 4-.056 2.648 0 3 .008 4 .056 2.695.123 3.949 1.398 4.074 4.065z"/>
        </g>
    </g>
</svg>