<svg xmlns="http://www.w3.org/2000/svg" width="34" height="35" viewBox="0 0 34 35">
    <g>
        <g>
            <path fill="currentColor"
                  d="M14 26.61c-2.27 0-4.408-.674-6.208-1.828 2.208.218 4.313-.346 6.023-1.684-1.815-.033-3.282-1.21-3.815-2.826a4.13 4.13 0 0 0 1.852-.07C9.895 19.81 8.544 18 8.588 16.163a4.06 4.06 0 0 0 1.843.509 4.073 4.073 0 0 1-1.26-5.432 11.55 11.55 0 0 0 8.387 4.25c-.558-2.543 1.338-4.994 3.965-4.994a4.11 4.11 0 0 1 2.97 1.284 8.118 8.118 0 0 0 2.584-.987A3.856 3.856 0 0 1 25.287 13a6.909 6.909 0 0 0 2.337-.6 8.165 8.165 0 0 1-2.03 2.11c.259 5.721-4.01 12.1-11.594 12.1zM17 .85C7.612.85 0 8.46 0 17.845 0 27.23 7.612 34.84 17 34.84s17-7.61 17-16.995C34 8.459 26.388.85 17 .85z"/>
        </g>
    </g>
</svg>