<svg xmlns="http://www.w3.org/2000/svg" width="34" height="35" viewBox="0 0 34 35">
    <g>
        <g>
            <path fill="currentColor"
                  d="M16.096 26.362c-2.785 0-3.187-5.937-4.709-9.89C10.641 14.53 10.157 15 8.755 16l-.856-1.146C9.945 13.055 12 11 13.252 10.85c1.413-.135 2.287.832 2.613 2.905.432 2.725 1.033 6.954 2.135 6.954.768 0 2.788-3.355 2.892-4.553.184-1.756-1.292-1.809-2.572-1.26C20.346 8.255 28.78 9.478 25.245 17c-1.85 4-6.323 9.362-9.149 9.362zM17 .85C7.612.85 0 8.46 0 17.845 0 27.23 7.612 34.84 17 34.84s17-7.61 17-16.995C34 8.459 26.388.85 17 .85z"/>
        </g>
    </g>
</svg>