<?xml version="1.0" encoding="UTF-8"?><svg id="Layer_1" xmlns="http://www.w3.org/2000/svg" viewBox="0 0 477.53 75.36"><defs><style>.cls-1{fill:#676767;fill-rule:evenodd;}</style></defs><path class="cls-1" d="M49.81,27.73c-.43-1.5-1.97-1.5-2.4,0l-7.68,27.19c-1.54,5.42-7.08,5.46-8.54,0L22.41,22.06h3.85l8.02,31.44c.41,1.53,1.94,1.52,2.37,0l7.68-27.43c1.52-5.36,7.05-5.36,8.57,0l7.72,27.17c.43,1.5,1.97,1.5,2.4,0l7.62-26.83c1.54-5.43,7.16-5.34,8.61,.14l9.13,32.39h-4.12l-8.13-30.84c-.41-1.53-1.98-1.56-2.41-.04l-7.62,26.84c-1.52,5.36-7.05,5.36-8.57,0l-7.72-27.17Z"/><path d="M105.87,58.02l-13.48-35.87h4.66l11.33,31.32,11.43-31.32h4.56l-13.48,35.88h-5.02Z"/><path d="M129.29,58.02V22.15h4.31V58.03h-4.31Z"/><path d="M152.63,58.64c-2.63,0-4.92-.48-6.87-1.44s-3.45-2.29-4.51-4-1.59-3.69-1.59-5.95h4.51c0,1.4,.32,2.7,.97,3.9,.65,1.16,1.59,2.1,2.82,2.82,1.26,.68,2.82,1.03,4.66,1.03,2.43,0,4.31-.58,5.64-1.74s2-2.61,2-4.36c0-1.44-.31-2.58-.92-3.43-.61-.89-1.45-1.61-2.51-2.15-1.03-.55-2.22-1.03-3.59-1.44-1.33-.41-2.73-.87-4.2-1.38-2.77-.96-4.82-2.14-6.15-3.54-1.33-1.44-2-3.3-2-5.59-.03-1.91,.41-3.6,1.33-5.07,.92-1.5,2.22-2.67,3.9-3.49,1.71-.85,3.72-1.28,6.05-1.28s4.27,.43,5.95,1.28c1.71,.85,3.02,2.03,3.95,3.54,.96,1.5,1.45,3.21,1.49,5.13h-4.51c0-.99-.26-1.96-.77-2.92-.51-.99-1.3-1.79-2.36-2.41-1.02-.62-2.32-.92-3.9-.92-1.95-.03-3.55,.46-4.82,1.49-1.23,1.03-1.84,2.44-1.84,4.25,0,1.54,.43,2.72,1.28,3.54,.89,.82,2.12,1.5,3.69,2.05,1.57,.51,3.38,1.11,5.43,1.79,1.71,.62,3.25,1.33,4.61,2.15,1.37,.82,2.43,1.88,3.18,3.18,.79,1.3,1.18,2.96,1.18,4.97,0,1.71-.44,3.33-1.33,4.87-.89,1.5-2.24,2.73-4.05,3.69-1.78,.95-4.02,1.43-6.72,1.43Z"/><path d="M170.83,58.02V22.15h4.31V58.03h-4.31Z"/><path d="M191.15,58.02V25.68h-10.71v-3.54h25.73v3.54h-10.71V58.02h-4.31Z"/><path d="M211.42,58.02V22.15h4.31V58.03h-4.31Z"/><path d="M223.33,58.02V22.15h4.31l19.12,28.75V22.15h4.31V58.03h-4.31l-19.12-28.75v28.75h-4.31Z"/><path d="M274.1,58.64c-3.35,0-6.29-.77-8.82-2.31-2.53-1.57-4.49-3.74-5.89-6.51-1.4-2.8-2.1-6.03-2.1-9.69s.7-6.88,2.1-9.69c1.44-2.8,3.45-4.99,6.05-6.56,2.63-1.57,5.72-2.36,9.28-2.36,4.03,0,7.38,.97,10.05,2.92,2.7,1.95,4.44,4.63,5.23,8.05h-4.97c-.48-2.15-1.62-3.86-3.43-5.13-1.78-1.26-4.07-1.9-6.87-1.9-2.63,0-4.92,.6-6.87,1.79-1.95,1.16-3.47,2.84-4.56,5.02-1.06,2.19-1.59,4.8-1.59,7.84s.53,5.65,1.59,7.84,2.53,3.88,4.41,5.07c1.88,1.16,4.07,1.74,6.56,1.74,3.83,0,6.71-1.11,8.66-3.33,1.95-2.26,3.06-5.33,3.33-9.23h-10.35v-3.38h14.76v19.17h-3.95l-.36-5.89c-1.3,2.08-2.89,3.69-4.77,4.82-1.89,1.15-4.38,1.72-7.49,1.72Z"/><path d="M310.74,58.02V22.15h5.02l12.92,25.01,12.81-25.01h5.07V58.03h-4.31V29.83l-11.98,23.07h-3.23l-11.99-23.01v28.14h-4.31Z"/><path d="M354.14,58.02V22.15h22.19v3.54h-17.89v12.51h16.35v3.49h-16.35v12.81h17.89v3.54h-22.19v-.02Z"/><path d="M383.07,58.02V22.15h11.02c6.32,0,10.97,1.61,13.94,4.82,3.01,3.21,4.51,7.62,4.51,13.22s-1.5,9.86-4.51,13.07c-2.97,3.18-7.62,4.77-13.94,4.77h-11.02Zm4.3-3.59h6.61c3.49,0,6.25-.56,8.3-1.69,2.08-1.16,3.57-2.8,4.46-4.92,.89-2.15,1.33-4.7,1.33-7.64s-.44-5.59-1.33-7.74c-.89-2.15-2.37-3.81-4.46-4.97-2.05-1.16-4.82-1.74-8.3-1.74h-6.61v28.7Z"/><path d="M418.75,58.02V22.15h4.31V58.03h-4.31Z"/><path d="M428.41,58.02l13.22-35.88h4.56l13.17,35.88h-4.56l-3.28-9.23h-15.27l-3.33,9.23h-4.51Zm9.12-12.71h12.71l-6.36-17.73-6.35,17.73Z"/></svg>