<svg width="40" height="40" viewBox="0 0 40 40" fill="none" xmlns="http://www.w3.org/2000/svg">
<rect width="40" height="40" fill="white"/>
<g clip-path="url(#clip0_370_3458)">
<path d="M3.00935 19.7187C3.20548 19.7187 3.36449 19.5592 3.36449 19.3625C3.36449 19.1657 3.20548 19.0062 3.00935 19.0062C2.81321 19.0062 2.65421 19.1657 2.65421 19.3625C2.65421 19.5592 2.81321 19.7187 3.00935 19.7187Z" fill="#13B3BA"/>
<path d="M3.00935 18.875C3.24678 18.875 3.43925 18.6819 3.43925 18.4437C3.43925 18.2055 3.24678 18.0125 3.00935 18.0125C2.77191 18.0125 2.57944 18.2055 2.57944 18.4437C2.57944 18.6819 2.77191 18.875 3.00935 18.875Z" fill="#13B3BA"/>
<path d="M4.11215 18.5C3.86916 18.5 3.68224 18.6875 3.68224 18.9313C3.68224 19.0813 3.75701 19.2125 3.86916 19.2875C3.53271 19.7 3.27103 20.1875 3.1215 20.7313V19.8875H2.93458V20.7313C2.78505 20.1875 2.52336 19.6813 2.18692 19.2875C2.29907 19.2125 2.37383 19.0813 2.37383 18.9313C2.37383 18.6875 2.18692 18.5 1.94393 18.5C1.70093 18.5 1.49533 18.6875 1.49533 18.9313C1.49533 19.175 1.68224 19.3625 1.92523 19.3625H1.98131C2.57944 20.0188 2.93458 21.0125 2.93458 22.025H3.1215C3.1028 21.0125 3.47664 20.0375 4.07477 19.3625H4.11215C4.35514 19.3625 4.54206 19.175 4.54206 18.9313C4.52336 18.6875 4.33645 18.5 4.11215 18.5Z" fill="#13B3BA"/>
<path d="M3.00929 17.225C4.542 17.225 5.79433 18.4812 5.79433 20.0187C5.79433 21.5562 4.542 22.8125 3.00929 22.8125C1.47658 22.8125 0.224241 21.5562 0.224241 20.0187C0.224241 18.4812 1.47658 17.225 3.00929 17.225ZM3.00929 17.0375C1.36443 17.0375 0.0186334 18.3687 0.0186334 20.0187C0.0186334 21.6687 1.36443 23 3.00929 23C4.65415 23 5.98125 21.6687 5.98125 20.0187C5.98125 18.3687 4.65415 17.0375 3.00929 17.0375Z" fill="#13B3BA"/>
<path d="M7.06542 18.5H7.62617L8.33645 20.7125L9.06542 18.5H9.51402L10.243 20.7125L10.9159 18.5H11.4579L10.4299 21.5H9.98131L9.25234 19.3625L8.52336 21.5H8.07477L7.06542 18.5Z" fill="#13B3BA"/>
<path d="M11.9065 18.5H14.1121V18.9688H12.4299V19.7375H13.9065V20.2063H12.4299V20.9938H14.1308V21.4625H11.9065V18.5Z" fill="#13B3BA"/>
<path d="M14.7103 18.5H15.8131C16.7477 18.5 17.3832 19.1375 17.3832 19.9812V20C17.3832 20.8437 16.729 21.4812 15.8131 21.4812H14.7103V18.5ZM15.2336 18.9687V20.9937H15.8131C16.4299 20.9937 16.8411 20.5812 16.8411 19.9812V19.9625C16.8411 19.3812 16.4299 18.95 15.8131 18.95L15.2336 18.9687Z" fill="#13B3BA"/>
<path d="M17.9626 18.5H19.0654C20 18.5 20.6355 19.1375 20.6355 19.9812V20C20.6355 20.8437 19.9813 21.4812 19.0654 21.4812H17.9626V18.5ZM18.486 18.9687V20.9937H19.0654C19.6822 20.9937 20.0935 20.5812 20.0935 19.9812V19.9625C20.0935 19.3812 19.6822 18.95 19.0654 18.95L18.486 18.9687Z" fill="#13B3BA"/>
<path d="M21.215 18.5H21.7383V21.4812H21.215V18.5Z" fill="#13B3BA"/>
<path d="M22.4673 18.5H22.9533L24.5421 20.5625V18.5H25.0467V21.4812H24.5981L22.9533 19.3625V21.4812H22.4486L22.4673 18.5Z" fill="#13B3BA"/>
<path d="M25.6262 20C25.6262 19.1562 26.2617 18.4437 27.1589 18.4437C27.6822 18.4437 28 18.5937 28.2991 18.8562L27.9813 19.25C27.7383 19.0625 27.5327 18.9312 27.1402 18.9312C26.5981 18.9312 26.1869 19.4187 26.1869 19.9812V20C26.1869 20.6187 26.5981 21.0687 27.1963 21.0687C27.4766 21.0687 27.7383 20.975 27.9065 20.8437V20.2812H27.1589V19.8312H28.4112V21.0875C28.1121 21.3312 27.7009 21.5562 27.1776 21.5562C26.243 21.5187 25.6262 20.8625 25.6262 20Z" fill="#13B3BA"/>
<path d="M28.6916 18.5H29.0467L29.8878 20.975L30.7103 18.4812H30.9907L31.8131 20.975L32.6542 18.5H33.0093L31.9439 21.5H31.6635L30.8411 19.0812L30.0187 21.5H29.7383L28.6916 18.5Z" fill="#13B3BA"/>
<path d="M33.514 18.5H33.8505V21.4812H33.514V18.5Z" fill="#13B3BA"/>
<path d="M34.6542 18.5H35.9252C36.2804 18.5 36.5794 18.6125 36.7664 18.8C36.9159 18.95 37.0093 19.1562 37.0093 19.3812V19.4C37.0093 19.8875 36.6729 20.1875 36.2056 20.2812L37.1215 21.5H36.7103L35.8505 20.3375H35.0093V21.5H34.6729L34.6542 18.5ZM35.9065 20.0188C36.3551 20.0188 36.6729 19.775 36.6729 19.4V19.3812C36.6729 19.025 36.3925 18.8 35.9252 18.8H35.0093V20.0188H35.9065Z" fill="#13B3BA"/>
<path d="M37.6636 18.5H39.8131V18.8H38V19.8125H39.6262V20.1125H38V21.1625H39.8318V21.4625H37.6636V18.5Z" fill="#13B3BA"/>
</g>
<defs>
<clipPath id="clip0_370_3458">
<rect width="40" height="6" fill="white" transform="translate(0 17)"/>
</clipPath>
</defs>
</svg>
